<svg width="94" height="32" viewBox="0 0 94 32" fill="none" xmlns="http://www.w3.org/2000/svg">
<rect width="94" height="32" rx="5" fill="white"/>
<path d="M11.12 24.36L8.72 24L13.208 8.04L19.016 8.4L22.136 24L19.976 24.36L18.32 20.376L11.936 20.904L11.12 24.36ZM17.792 19.104L14.456 11.064H14.264L12.368 19.056L17.792 19.104ZM30.6241 24.576C29.3761 24.576 28.2721 24.464 27.3121 24.24C26.3521 24.016 25.5521 23.656 24.9121 23.16C24.7681 22.52 24.6641 21.944 24.6001 21.432C24.5521 20.904 24.5281 20.408 24.5281 19.944C24.5281 18.52 24.7441 17.216 25.1761 16.032C25.6241 14.848 26.1921 13.832 26.8801 12.984C27.5681 12.12 28.2801 11.48 29.0161 11.064C29.6721 11.32 30.3361 11.632 31.0081 12C31.6961 12.352 32.3281 12.768 32.9041 13.248C33.4801 13.728 33.9441 14.272 34.2961 14.88C34.6481 15.472 34.8241 16.128 34.8241 16.848C34.8241 17.6 34.6881 18.232 34.4161 18.744C34.1601 19.24 33.6881 19.616 33.0001 19.872C32.3121 20.128 31.3201 20.256 30.0241 20.256C29.4801 20.256 28.9521 20.232 28.4401 20.184C27.9441 20.136 27.5121 20.072 27.1441 19.992C26.8401 20.744 26.6881 21.528 26.6881 22.344C27.0561 22.392 27.4561 22.432 27.8881 22.464C28.3201 22.48 28.7361 22.488 29.1361 22.488C29.8881 22.488 30.6561 22.432 31.4401 22.32C32.2401 22.192 33.0401 21.984 33.8401 21.696L34.5601 24.024C33.9201 24.232 33.2641 24.376 32.5921 24.456C31.9201 24.536 31.2641 24.576 30.6241 24.576ZM28.6321 18.888C29.2401 18.888 29.8481 18.856 30.4561 18.792C31.0801 18.728 31.6241 18.648 32.0881 18.552C32.1361 18.232 32.1601 17.928 32.1601 17.64C32.1601 17.064 32.0801 16.552 31.9201 16.104C31.7761 15.64 31.5921 15.232 31.3681 14.88C30.4721 15.472 29.7281 16.096 29.1361 16.752C28.5601 17.408 28.0561 18.112 27.6241 18.864C27.7841 18.88 27.9521 18.888 28.1281 18.888C28.3041 18.888 28.4721 18.888 28.6321 18.888ZM39.7724 24.36L38.7404 14.664L36.5324 14.976L36.3884 12.504L38.5004 12.408L38.1404 9.048L44.1164 8.256L43.6364 12.144L46.0124 12.024L45.9404 13.632L43.3964 13.992L42.1484 24.144L39.7724 24.36ZM49.3884 24.36L48.1644 7.608L53.3004 6.816L52.4124 16.704H52.6284C53.2684 15.12 54.0284 13.848 54.9084 12.888C55.8044 11.928 56.7484 11.448 57.7404 11.448C58.0284 11.448 58.3164 11.496 58.6044 11.592C58.9724 12.04 59.2844 12.656 59.5404 13.44C59.7964 14.208 60.0044 15.064 60.1644 16.008C60.3244 16.952 60.4444 17.92 60.5244 18.912C60.6044 19.888 60.6604 20.824 60.6924 21.72C60.7244 22.6 60.7404 23.36 60.7404 24L56.4204 24.36C56.4204 22.808 56.4044 21.464 56.3724 20.328C56.3404 19.192 56.2924 18.152 56.2284 17.208C56.1804 16.248 56.1084 15.28 56.0124 14.304C55.7084 14.416 55.3564 14.624 54.9564 14.928C54.5724 15.232 54.1804 15.728 53.7804 16.416C53.3804 17.104 53.0044 18.072 52.6524 19.32C52.3004 20.552 52.0044 22.16 51.7644 24.144L49.3884 24.36ZM69.7413 24.576C68.4933 24.576 67.3893 24.464 66.4293 24.24C65.4693 24.016 64.6693 23.656 64.0293 23.16C63.8853 22.52 63.7813 21.944 63.7173 21.432C63.6693 20.904 63.6453 20.408 63.6453 19.944C63.6453 18.52 63.8613 17.216 64.2933 16.032C64.7413 14.848 65.3093 13.832 65.9973 12.984C66.6853 12.12 67.3973 11.48 68.1333 11.064C68.7893 11.32 69.4533 11.632 70.1253 12C70.8133 12.352 71.4453 12.768 72.0213 13.248C72.5973 13.728 73.0613 14.272 73.4133 14.88C73.7653 15.472 73.9413 16.128 73.9413 16.848C73.9413 17.6 73.8053 18.232 73.5333 18.744C73.2773 19.24 72.8053 19.616 72.1173 19.872C71.4293 20.128 70.4373 20.256 69.1413 20.256C68.5973 20.256 68.0693 20.232 67.5573 20.184C67.0613 20.136 66.6293 20.072 66.2613 19.992C65.9573 20.744 65.8053 21.528 65.8053 22.344C66.1733 22.392 66.5733 22.432 67.0053 22.464C67.4373 22.48 67.8533 22.488 68.2533 22.488C69.0053 22.488 69.7733 22.432 70.5573 22.32C71.3573 22.192 72.1573 21.984 72.9573 21.696L73.6773 24.024C73.0373 24.232 72.3813 24.376 71.7093 24.456C71.0373 24.536 70.3813 24.576 69.7413 24.576ZM67.7493 18.888C68.3573 18.888 68.9653 18.856 69.5733 18.792C70.1973 18.728 70.7413 18.648 71.2053 18.552C71.2533 18.232 71.2773 17.928 71.2773 17.64C71.2773 17.064 71.1973 16.552 71.0373 16.104C70.8933 15.64 70.7093 15.232 70.4853 14.88C69.5893 15.472 68.8453 16.096 68.2533 16.752C67.6773 17.408 67.1733 18.112 66.7413 18.864C66.9013 18.88 67.0693 18.888 67.2453 18.888C67.4213 18.888 67.5893 18.888 67.7493 18.888ZM78.0496 24.36L76.8256 12.456L81.9616 11.664L81.4816 15.504H81.6496C82.2576 14.176 82.9776 13.136 83.8096 12.384C84.6576 11.616 85.5696 11.192 86.5456 11.112L85.8736 16.224C85.6176 16.192 85.3696 16.168 85.1296 16.152C84.9056 16.12 84.6816 16.104 84.4576 16.104C83.7696 16.104 83.1776 16.256 82.6816 16.56C82.2016 16.864 81.8016 17.408 81.4816 18.192C81.1776 18.96 80.9376 20.04 80.7616 21.432L80.4256 24.144L78.0496 24.36Z" fill="black"/>
</svg>
