<svg width="79" height="34" viewBox="0 0 79 34" fill="none" xmlns="http://www.w3.org/2000/svg">
<path d="M3.12 24.36L0.72 24L5.208 8.04L11.016 8.4L14.136 24L11.976 24.36L10.32 20.376L3.936 20.904L3.12 24.36ZM9.792 19.104L6.456 11.064H6.264L4.368 19.056L9.792 19.104ZM22.6241 24.576C21.3761 24.576 20.2721 24.464 19.3121 24.24C18.3521 24.016 17.5521 23.656 16.9121 23.16C16.7681 22.52 16.6641 21.944 16.6001 21.432C16.5521 20.904 16.5281 20.408 16.5281 19.944C16.5281 18.52 16.7441 17.216 17.1761 16.032C17.6241 14.848 18.1921 13.832 18.8801 12.984C19.5681 12.12 20.2801 11.48 21.0161 11.064C21.6721 11.32 22.3361 11.632 23.0081 12C23.6961 12.352 24.3281 12.768 24.9041 13.248C25.4801 13.728 25.9441 14.272 26.2961 14.88C26.6481 15.472 26.8241 16.128 26.8241 16.848C26.8241 17.6 26.6881 18.232 26.4161 18.744C26.1601 19.24 25.6881 19.616 25.0001 19.872C24.3121 20.128 23.3201 20.256 22.0241 20.256C21.4801 20.256 20.9521 20.232 20.4401 20.184C19.9441 20.136 19.5121 20.072 19.1441 19.992C18.8401 20.744 18.6881 21.528 18.6881 22.344C19.0561 22.392 19.4561 22.432 19.8881 22.464C20.3201 22.48 20.7361 22.488 21.1361 22.488C21.8881 22.488 22.6561 22.432 23.4401 22.32C24.2401 22.192 25.0401 21.984 25.8401 21.696L26.5601 24.024C25.9201 24.232 25.2641 24.376 24.5921 24.456C23.9201 24.536 23.2641 24.576 22.6241 24.576ZM20.6321 18.888C21.2401 18.888 21.8481 18.856 22.4561 18.792C23.0801 18.728 23.6241 18.648 24.0881 18.552C24.1361 18.232 24.1601 17.928 24.1601 17.64C24.1601 17.064 24.0801 16.552 23.9201 16.104C23.7761 15.64 23.5921 15.232 23.3681 14.88C22.4721 15.472 21.7281 16.096 21.1361 16.752C20.5601 17.408 20.0561 18.112 19.6241 18.864C19.7841 18.88 19.9521 18.888 20.1281 18.888C20.3041 18.888 20.4721 18.888 20.6321 18.888ZM31.7724 24.36L30.7404 14.664L28.5324 14.976L28.3884 12.504L30.5004 12.408L30.1404 9.048L36.1164 8.256L35.6364 12.144L38.0124 12.024L37.9404 13.632L35.3964 13.992L34.1484 24.144L31.7724 24.36ZM41.3884 24.36L40.1644 7.608L45.3004 6.816L44.4124 16.704H44.6284C45.2684 15.12 46.0284 13.848 46.9084 12.888C47.8044 11.928 48.7484 11.448 49.7404 11.448C50.0284 11.448 50.3164 11.496 50.6044 11.592C50.9724 12.04 51.2844 12.656 51.5404 13.44C51.7964 14.208 52.0044 15.064 52.1644 16.008C52.3244 16.952 52.4444 17.92 52.5244 18.912C52.6044 19.888 52.6604 20.824 52.6924 21.72C52.7244 22.6 52.7404 23.36 52.7404 24L48.4204 24.36C48.4204 22.808 48.4044 21.464 48.3724 20.328C48.3404 19.192 48.2924 18.152 48.2284 17.208C48.1804 16.248 48.1084 15.28 48.0124 14.304C47.7084 14.416 47.3564 14.624 46.9564 14.928C46.5724 15.232 46.1804 15.728 45.7804 16.416C45.3804 17.104 45.0044 18.072 44.6524 19.32C44.3004 20.552 44.0044 22.16 43.7644 24.144L41.3884 24.36ZM61.7413 24.576C60.4933 24.576 59.3893 24.464 58.4293 24.24C57.4693 24.016 56.6693 23.656 56.0293 23.16C55.8853 22.52 55.7813 21.944 55.7173 21.432C55.6693 20.904 55.6453 20.408 55.6453 19.944C55.6453 18.52 55.8613 17.216 56.2933 16.032C56.7413 14.848 57.3093 13.832 57.9973 12.984C58.6853 12.12 59.3973 11.48 60.1333 11.064C60.7893 11.32 61.4533 11.632 62.1253 12C62.8133 12.352 63.4453 12.768 64.0213 13.248C64.5973 13.728 65.0613 14.272 65.4133 14.88C65.7653 15.472 65.9413 16.128 65.9413 16.848C65.9413 17.6 65.8053 18.232 65.5333 18.744C65.2773 19.24 64.8053 19.616 64.1173 19.872C63.4293 20.128 62.4373 20.256 61.1413 20.256C60.5973 20.256 60.0693 20.232 59.5573 20.184C59.0613 20.136 58.6293 20.072 58.2613 19.992C57.9573 20.744 57.8053 21.528 57.8053 22.344C58.1733 22.392 58.5733 22.432 59.0053 22.464C59.4373 22.48 59.8533 22.488 60.2533 22.488C61.0053 22.488 61.7733 22.432 62.5573 22.32C63.3573 22.192 64.1573 21.984 64.9573 21.696L65.6773 24.024C65.0373 24.232 64.3813 24.376 63.7093 24.456C63.0373 24.536 62.3813 24.576 61.7413 24.576ZM59.7493 18.888C60.3573 18.888 60.9653 18.856 61.5733 18.792C62.1973 18.728 62.7413 18.648 63.2053 18.552C63.2533 18.232 63.2773 17.928 63.2773 17.64C63.2773 17.064 63.1973 16.552 63.0373 16.104C62.8933 15.64 62.7093 15.232 62.4853 14.88C61.5893 15.472 60.8453 16.096 60.2533 16.752C59.6773 17.408 59.1733 18.112 58.7413 18.864C58.9013 18.88 59.0693 18.888 59.2453 18.888C59.4213 18.888 59.5893 18.888 59.7493 18.888ZM70.0496 24.36L68.8256 12.456L73.9616 11.664L73.4816 15.504H73.6496C74.2576 14.176 74.9776 13.136 75.8096 12.384C76.6576 11.616 77.5696 11.192 78.5456 11.112L77.8736 16.224C77.6176 16.192 77.3696 16.168 77.1296 16.152C76.9056 16.12 76.6816 16.104 76.4576 16.104C75.7696 16.104 75.1776 16.256 74.6816 16.56C74.2016 16.864 73.8016 17.408 73.4816 18.192C73.1776 18.96 72.9376 20.04 72.7616 21.432L72.4256 24.144L70.0496 24.36Z" fill="white"/>
</svg>
